<?xml version="1.0" encoding="utf-8"?>
<!-- Generator: Adobe Illustrator 16.0.0, SVG Export Plug-In . SVG Version: 6.00 Build 0)  -->
<!DOCTYPE svg PUBLIC "-//W3C//DTD SVG 1.1//EN" "http://www.w3.org/Graphics/SVG/1.1/DTD/svg11.dtd">
<svg version="1.1" id="Calque_1" xmlns="http://www.w3.org/2000/svg" xmlns:xlink="http://www.w3.org/1999/xlink" x="0px" y="0px"
	 width="1417.32px" height="1417.32px" viewBox="0 0 1417.32 1417.32" enable-background="new 0 0 1417.32 1417.32"
	 xml:space="preserve">
<linearGradient id="SVGID_1_" gradientUnits="userSpaceOnUse" x1="0.7949" y1="773.709" x2="1417.3203" y2="773.709">
	<stop  offset="0" style="stop-color:#F37021"/>
	<stop  offset="1" style="stop-color:#E36525"/>
</linearGradient>
<path fill="url(#SVGID_1_)" d="M739.436,395.232l-305.721,756.953H306.508L0.795,395.232h113.07c12.212,0,22.16,2.969,29.842,8.89
	c7.668,5.949,13.426,13.618,17.275,23.034l178.505,461.711c5.929,15.01,11.602,31.511,17.012,49.475
	c5.41,17.977,10.551,36.735,15.443,56.275c4.189-19.54,8.719-38.299,13.611-56.275c4.885-17.964,10.289-34.465,16.231-49.475
	l177.456-461.711c2.791-8.024,8.286-15.352,16.494-21.983c8.193-6.616,18.232-9.94,30.097-9.94H739.436z M1417.32,772.665v306.232
	c-38.397,28.272-79.311,48.947-122.762,62.026c-43.441,13.093-89.947,19.64-139.506,19.64c-61.771,0-117.707-9.599-167.777-28.799
	c-50.085-19.185-92.828-45.882-128.244-80.091c-35.43-34.193-62.738-75.034-81.936-122.492
	c-19.199-47.457-28.784-99.289-28.784-155.48c0-56.872,9.243-109.044,27.747-156.516c18.489-47.459,44.745-88.284,78.783-122.493
	c34.025-34.195,75.291-60.722,123.8-79.579c48.509-18.844,102.938-28.259,163.332-28.259c30.702,0,59.416,2.442,86.111,7.327
	c26.697,4.885,51.464,11.602,74.326,20.151c22.861,8.562,43.707,18.943,62.564,31.155c18.846,12.212,36.111,25.646,51.819,40.301
	l-40.303,63.873c-6.289,10.125-14.483,16.316-24.606,18.574c-10.126,2.273-21.117-0.256-32.975-7.583
	c-11.517-6.631-23.034-13.263-34.55-19.895c-11.516-6.631-24.354-12.382-38.482-17.281c-14.129-4.886-30.02-8.89-47.644-12.042
	c-17.621-3.139-37.942-4.7-60.976-4.7c-37.348,0-71.116,6.276-101.291,18.844c-30.19,12.566-55.936,30.544-77.223,53.918
	c-21.286,23.387-37.688,51.477-49.204,84.279S892.26,733.23,892.26,773.701c0,43.283,6.192,81.938,18.589,115.961
	c12.383,34.023,29.834,62.809,52.343,86.367c22.521,23.558,49.645,41.536,81.41,53.918c31.753,12.398,67.184,18.59,106.262,18.59
	c27.918,0,52.867-2.969,74.865-8.904c21.981-5.922,43.438-13.945,64.385-24.084V878.4h-95.271c-9.088,0-16.146-2.527-21.203-7.582
	c-5.068-5.056-7.597-11.262-7.597-18.589v-79.564H1417.32z"/>
</svg>
